<svg xmlns="http://www.w3.org/2000/svg" width="100%" height="100%" viewBox="0 0 19 20" fill="none" preserveAspectRatio="xMidYMid meet" aria-hidden="true" role="img">
    <path d="M13.2965 18.0247C13.1948 18.1074 13.0598 18.151 12.919 18.135C12.6809 18.1089 7.06416 17.4645 4.64702 14.4746C2.22988 11.4848 2.57539 6.92754 5.57178 4.50811C8.56816 2.08722 13.0279 2.62133 15.5133 5.69678C15.6904 5.91738 15.657 6.23959 15.4363 6.41665C15.2157 6.59372 14.8934 6.56034 14.7163 6.33973C12.5851 3.7026 8.77285 3.23816 6.21635 5.30491C3.65984 7.37165 3.31288 11.1946 5.44402 13.8317C7.5984 16.4964 12.9756 17.1118 13.0293 17.1176C13.311 17.1481 13.5142 17.4006 13.4837 17.6822C13.4692 17.823 13.3981 17.9434 13.2965 18.0261V18.0247Z" fill="currentColor"></path>
    <path d="M17.1697 14.8956C15.7934 16.0073 10.2376 15.926 7.53595 13.225C6.58507 12.2758 6.05518 10.9449 6.11906 9.66774C6.17423 8.56615 6.66056 7.58503 7.48659 6.91014L7.50256 6.89708C8.31699 6.23961 9.34191 5.93773 10.3959 6.04658C11.4948 6.15979 12.4864 6.70115 13.189 7.57197L13.5113 7.97109C14.3983 9.06978 15.9851 9.26571 17.0477 8.40795C18.1104 7.5502 18.2512 5.95805 17.3627 4.86081L17.2495 4.72148C14.0847 0.80569 8.59862 -0.144956 4.76024 2.55459C2.75104 3.96822 1.45464 6.09883 1.11057 8.55164C0.756351 11.0814 1.48948 13.6895 3.11978 15.7083C4.46408 17.3716 6.34118 18.537 8.40409 18.987C8.68137 19.0479 8.85558 19.3208 8.79606 19.5965C8.73654 19.8723 8.46216 20.0479 8.18633 19.9884C5.89549 19.4891 3.81516 18.1974 2.32423 16.3527C0.515363 14.1147 -0.296157 11.2207 0.0972634 8.41086C0.480521 5.67358 1.92209 3.29624 4.17083 1.7186C8.45055 -1.29009 14.5449 -0.252358 18.0465 4.07998L18.1598 4.21931C19.4024 5.75776 19.1934 7.99431 17.6908 9.20766C16.1897 10.421 13.957 10.1569 12.7143 8.6184L12.392 8.21928C11.8621 7.56326 11.1159 7.15542 10.2899 7.06979C9.50305 6.98852 8.71331 7.21928 8.13407 7.70694C7.3661 8.33393 7.17012 9.14815 7.14108 9.72144C7.09172 10.7142 7.50837 11.7534 8.25747 12.5023C10.7254 14.9667 15.6468 14.807 16.5236 14.0988C16.7443 13.9217 17.0666 13.9551 17.2437 14.1757C17.4208 14.3963 17.3874 14.7185 17.1668 14.8956H17.1697Z" fill="currentColor"></path>
    <path d="M18.4791 11.8622C16.3828 13.5559 11.7402 13.0523 9.31288 10.048C9.13577 9.82737 9.16916 9.50516 9.38982 9.3281C9.61049 9.15103 9.93277 9.18441 10.1099 9.40502C12.1554 11.9348 16.1331 12.4413 17.836 11.0668C18.0567 10.8898 18.379 10.9231 18.5561 11.1438C18.7332 11.3644 18.6998 11.6851 18.4791 11.8636V11.8622Z" fill="currentColor"></path>
</svg>
